<?xml version="1.0" encoding="utf-8"?>
<!-- Generator: Adobe Illustrator 19.0.0, SVG Export Plug-In . SVG Version: 6.00 Build 0)  -->
<svg version="1.1" id="layer" xmlns="http://www.w3.org/2000/svg" xmlns:xlink="http://www.w3.org/1999/xlink" x="0px" y="0px"
	 viewBox="-153 166 652 652" style="enable-background:new -153 -46 65 652;"  xml:space="preserve">
<style type="text/css">
	.st0{fill:#7DBCDE;}
	.st1{fill:#0057A6;}
</style>
<rect x="-131.4" y="198.1" class="st0" width="113.6" height="10.3"/>
<rect x="-131.4" y="239.5" class="st0" width="113.6" height="10.3"/>
<rect x="-131.4" y="280.8" class="st0" width="113.6" height="10.3"/>
<rect x="-131.4" y="322.1" class="st0" width="113.6" height="10.3"/>
<rect x="-90.1" y="218.8" class="st1" width="113.6" height="10.3"/>
<rect x="-90.1" y="260.1" class="st1" width="113.6" height="10.3"/>
<rect x="-90.1" y="301.4" class="st1" width="113.6" height="10.3"/>
<rect x="-90.1" y="342.7" class="st1" width="113.6" height="10.3"/>
<g>
	<path class="st1" d="M245.9,198.1h-10.8l-6.6,28.2c-0.4,1.7-0.9,3.9-1.4,6.7c-0.5,2.7-0.9,5-1.1,6.9c-0.3-1.9-0.6-4.2-1.1-6.9
		c-0.5-2.7-0.9-4.6-1.2-5.9l-7.5-28.9h-10.3l-7.5,28.9c-0.4,1.5-0.9,3.7-1.4,6.5c-0.5,2.8-0.8,4.9-1,6.2c-0.5-3.8-1.4-8.3-2.5-13.5
		l-6.6-28.2H176l13.2,51.6h12.4l7-27c0.3-1.2,0.7-3.2,1.3-6c0.6-2.8,0.9-4.9,1.1-6.1c0.1,1,0.5,3.1,1.1,6.1c0.6,3,1.1,5,1.3,6
		l7,27.1h12.5L245.9,198.1 M139.4,228.3c3.7-11.9,5.9-19.3,6.7-22.3c0.2,0.8,0.5,2,0.9,3.5c0.4,1.5,2.4,7.8,5.8,18.9H139.4z
		 M171,249.7l-18.3-51.8h-13.4l-18.2,51.8h11.8l3.7-12.3h18.8l3.7,12.3H171z M107.1,198.1H96.2v20.2H75.8v-20.2H64.8v51.6h10.9
		v-22.3h20.4v22.3h10.9V198.1z"/>
	<path class="st1" d="M448.1,312.6h9.8v10.8c-2.4,0.5-4.7,0.7-7,0.7c-4.4,0-7.7-1.5-10-4.4c-2.3-3-3.5-7.2-3.5-12.8
		c0-5.4,1.4-9.6,4.3-12.8c2.8-3.2,6.6-4.8,11.4-4.8c4.1,0,8,0.9,11.7,2.8l3.6-8.8c-4.9-2.1-10-3.2-15.3-3.2c-8.4,0-15.1,2.3-19.8,7
		c-4.8,4.7-7.2,11.1-7.2,19.5c0,8.6,2.1,15.1,6.2,19.7c4.1,4.6,10.1,6.9,17.8,6.9c3.1,0,6.1-0.2,9-0.7c2.9-0.4,6.1-1.2,9.4-2.3
		v-26.8h-20.5V312.6 M392.2,312.6l12.3,19.8h12.1c-2.4-3.4-7.4-10.9-15.2-22.5c3.1-1.3,5.4-3.2,7.1-5.6c1.7-2.4,2.5-5.1,2.5-8.1
		c0-5.2-1.7-9.1-5.1-11.6c-3.4-2.6-8.6-3.8-15.6-3.8h-15v51.6h10.9v-19.8H392.2z M386.3,289.8h3.3c3.5,0,6.1,0.5,7.8,1.6
		c1.7,1,2.5,2.8,2.5,5.2c0,2.5-0.8,4.3-2.5,5.4c-1.6,1.2-4.2,1.7-7.7,1.7h-3.5V289.8z M345.5,280.8v31.5c0,4-0.8,6.9-2.4,8.8
		c-1.6,1.9-4.2,2.8-7.8,2.8c-3.7,0-6.3-0.9-7.9-2.8c-1.6-1.9-2.4-4.8-2.4-8.8v-31.6h-10.9v33.2c0,5.9,1.8,10.6,5.5,14
		c3.7,3.4,8.8,5.1,15.5,5.1c4.4,0,8.2-0.8,11.4-2.3c3.2-1.5,5.7-3.7,7.4-6.6c1.7-2.9,2.6-6.2,2.6-10v-33.4H345.5z M277.2,309.9
		c6.1,0,9.2,2.1,9.2,6.4c0,2.4-0.7,4.1-2.2,5.3c-1.4,1.1-3.7,1.7-6.7,1.7h-7.1v-13.4H277.2z M270.4,289.8h5.8c3.1,0,5.4,0.4,6.9,1.3
		c1.4,0.9,2.2,2.3,2.2,4.3c0,2.1-0.7,3.6-2,4.6c-1.3,0.9-3.5,1.4-6.4,1.4h-6.4V289.8z M259.5,332.4h19.3c5.8,0,10.4-1.3,13.8-4
		c3.4-2.6,5.1-6.3,5.1-11c0-3.3-0.7-6-2.2-8c-1.4-2-3.8-3.4-7.1-4.1V305c2.4-0.4,4.3-1.6,5.8-3.6c1.5-2,2.2-4.5,2.2-7.6
		c0-4.5-1.7-7.9-5-9.9c-3.3-2.1-8.6-3.1-15.9-3.1h-16.1V332.4z M216.9,332.4l13.3-40.4h0.3c-0.3,6.5-0.4,10.5-0.5,12
		c0,1.5,0,2.8,0,4v24.4h10.2v-51.6h-14.9l-13,39.5h-0.2l-12.2-39.5H185v51.6h9.8v-24c0-2.8-0.2-8.3-0.7-16.5h0.3l12.4,40.5H216.9z
		 M139.4,311c3.7-11.9,5.9-19.3,6.7-22.3c0.2,0.8,0.5,2,0.9,3.5c0.4,1.5,2.4,7.8,5.8,18.9H139.4z M171,332.4l-18.3-51.8h-13.4
		l-18.2,51.8h11.8l3.7-12.3h18.8l3.7,12.3H171z M107.1,280.8H96.2V301H75.8v-20.2H64.8v51.6h10.9v-22.3h20.4v22.3h10.9V280.8z"/>
</g>
</svg>
